<?xml version="1.0" encoding="utf-8"?>
<!-- Svg Vector Icons : http://www.onlinewebfonts.com/icon -->
<!DOCTYPE svg PUBLIC "-//W3C//DTD SVG 1.1//EN" "http://www.w3.org/Graphics/SVG/1.1/DTD/svg11.dtd">
<svg version="1.1" xmlns="http://www.w3.org/2000/svg" xmlns:xlink="http://www.w3.org/1999/xlink" x="0px" y="0px" viewBox="0 0 1000 1000" enable-background="new 0 0 1000 1000" xml:space="preserve">
<metadata> Svg Vector Icons : http://www.onlinewebfonts.com/icon </metadata>
<g><path d="M123.1,311.5h113.1H123.1z"/><path d="M763.8,311.5h113.1H763.8z"/><path d="M349.2,311.5h75.4H349.2z"/><path d="M575.4,311.5h75.4H575.4z"/><path d="M605.5,311.5l-196,369.4L206,311.5h-82.9L379.4,794c0,7.5,15.1,7.5,15.1,0l256.3-482.5H605.5z"/><path d="M816.6,311.5l-196,369.4L417.1,311.5h-82.9L590.5,794c0,7.5,15.1,7.5,15.1,0l256.3-482.5H816.6z"/><path d="M10,500c0,270.6,219.4,490,490,490c270.6,0,490-219.4,490-490c0-270.6-219.4-490-490-490C229.4,10,10,229.4,10,500z"/></g>
</svg>